<svg xmlns="http://www.w3.org/2000/svg" viewBox="0 0 512 512"><g data-name="Opened Book"><circle cx="256" cy="426.667" r="42.667" style="fill:#0784ff"/><path d="M426.667 469.333 256 448 85.333 469.333a42.667 42.667 0 0 1-42.666-42.666V149.333a42.667 42.667 0 0 1 42.666-42.666l128-21.334A42.667 42.667 0 0 1 256 128a42.667 42.667 0 0 1 42.667-42.667l128 21.334a42.667 42.667 0 0 1 42.666 42.666v277.334a42.667 42.667 0 0 1-42.666 42.666z" style="fill:#0784ff"/><path d="M53.333 405.149a10.667 10.667 0 0 0-10.666 10.666v10.852a42.667 42.667 0 0 0 42.666 42.666l136.709-17.088A42.463 42.463 0 0 0 256 469.333H256.295l.052-.001h.087l.036-.001h.051l.036-.001.054-.001h.032l.06-.001h.027l.086-.002h.014l.071-.002h.032l.055-.002h.034l.052-.002.037-.001.049-.001.037-.001.05-.002h.036l.051-.002.036-.002.05-.001.036-.001.063-.003h.023l.085-.004h.024l.061-.003.035-.001.05-.002.038-.002.049-.002.036-.002.05-.002.037-.002.05-.002.036-.002.05-.002.036-.002.054-.003.03-.002.072-.003.02-.002.08-.004.028-.002.056-.003.034-.002.053-.003.033-.002.051-.003.037-.003.049-.003.037-.002.047-.003.039-.003.048-.003.036-.003.055-.004.03-.002.084-.006.015-.001.07-.005.032-.003.053-.004.035-.003.05-.004.036-.003.05-.004.035-.003.048-.004.039-.003.047-.004.037-.003.052-.005.032-.003.064-.006.02-.001.084-.008.025-.002.06-.006.032-.003.052-.005.035-.004.05-.004.037-.004.046-.005.04-.004.045-.005.038-.004.048-.005.036-.003.052-.006.033-.003.06-.007.03-.003.076-.009.03-.003.054-.006.035-.004.049-.006.036-.004.048-.006.037-.004.048-.006.034-.004.052-.007.033-.004.051-.006.033-.004.052-.007.033-.004.082-.01.02-.003.062-.008.038-.005.046-.006.038-.005.045-.006.039-.006.046-.006.037-.005.046-.007.038-.005.045-.006.038-.006.048-.007.035-.005.057-.008.026-.004.082-.012.023-.003.06-.01.033-.004.05-.008.036-.005.046-.008.038-.005.045-.008.038-.006.046-.007.037-.006.046-.007.037-.006.048-.008.034-.005.062-.01.02-.004.082-.014.027-.004.055-.01.036-.006.046-.008.038-.006.044-.008.038-.007.046-.008.036-.006.046-.008.037-.007.048-.009.034-.006.056-.01.025-.004.082-.016.013-.002.069-.013.034-.006.047-.01.036-.006.047-.01.037-.006.044-.009.038-.007.044-.009.038-.007.046-.01.035-.006.047-.01.036-.007.047-.01.034-.006.078-.016.035-.007.048-.01.035-.008.045-.009.038-.008.045-.01.036-.007.045-.01.036-.007.047-.01.034-.008.047-.01.035-.008.048-.01.033-.008.056-.012.026-.006.08-.017.026-.006.054-.013.033-.007.048-.011.034-.008.046-.01.037-.01.044-.01.037-.008.043-.01.039-.01.042-.01.038-.008.044-.01.037-.01.074-.018.014-.003.07-.017.031-.008.05-.012.034-.008.044-.011.039-.01.042-.01.039-.01.04-.01.04-.01.04-.011.04-.01.04-.01.04-.01.045-.012.034-.01.078-.02.028-.007.05-.013.038-.01.042-.011.04-.011.039-.01.04-.011.04-.01.041-.012.037-.01.042-.012.038-.01.041-.012.04-.01.038-.011.047-.013.038-.01.07-.02.038-.011.04-.012.041-.011.04-.012.039-.011.039-.011.04-.012.039-.011.04-.012.037-.01.042-.013.039-.011.04-.012.037-.011.041-.013.039-.011.069-.02.045-.015.04-.011.038-.012.04-.013.039-.011.04-.013.038-.011.04-.013.038-.012.042-.013.034-.01.043-.014.035-.01.044-.015.032-.01.045-.014.018-.006.106-.034.026-.009.044-.014.034-.01.042-.014.036-.012.043-.014.033-.011.045-.015.033-.01.043-.015.034-.012.043-.014.034-.011.044-.015.024-.008.17-.058.032-.011.044-.015.032-.011.046-.016.03-.01.047-.017.03-.01.044-.016.033-.012.044-.015.033-.012.043-.015.03-.01.048-.018.015-.005.12-.044.01-.003.05-.018.027-.01.047-.017.029-.01.045-.017.032-.012.044-.016.031-.012.044-.016.033-.012.043-.017.032-.012.044-.016.03-.011.18-.07.01-.003.052-.02.024-.009.05-.02.025-.009.048-.019.027-.01.048-.019.027-.01.047-.019.028-.01.048-.02.021-.008.054-.021.012-.005.202-.081h.001l.056-.024.02-.007.05-.021.024-.01.048-.02.028-.01.047-.02.025-.01.05-.021.021-.009.054-.022.015-.006.264-.112.007-.003.055-.023.02-.009.052-.022.02-.009.052-.022.021-.01.052-.022.021-.009.051-.022.022-.01.053-.023.011-.005.26-.114.012-.006.054-.024.02-.01.053-.023.018-.008.053-.024.02-.01.053-.023.016-.008.057-.026.01-.005c.112-.05.224-.103.335-.155l.005-.002.059-.028.013-.006.057-.027.015-.007.055-.026.016-.008.056-.026.012-.006.059-.028.007-.004a42.3 42.3 0 0 0 .334-.162l.005-.002.06-.03.012-.006.056-.028.014-.007.056-.028.014-.007.058-.028.007-.004.396-.2.01-.006.056-.029.015-.007.055-.03.013-.006.057-.03.01-.005.06-.032h.002l.335-.177.065-.035.004-.002.061-.033.008-.005.062-.033.003-.002.065-.035c.179-.097.356-.195.532-.294l.001-.001c.217-.122.432-.245.646-.37a10.667 10.667 0 0 0-10.797-18.4A20.46 20.46 0 0 1 256 448a21.134 21.134 0 0 1-16.931-8.608 21.328 21.328 0 0 0-19.674-8.316L84.23 447.972A21.36 21.36 0 0 1 64 426.667v-10.852a10.667 10.667 0 0 0-10.667-10.666zm263.26 29.01a10.667 10.667 0 0 0-1.314 21.25l63.894 7.988.026.003.403.05.094.012 3.328.416.061.008.094.011.034.005.198.024.149.019.52.065.151.019 2.925.365.123.016.156.02.09.01.088.012.024.003 2.302.287.05.007 2.423.303h.006l.581.073.047.006.396.05.06.007.723.09.095.012.077.01.868.108.01.001.281.035.018.003.132.016.018.002.272.034.055.007.084.01.024.004.403.05.176.022.25.031.057.007.116.015.07.009.357.044.056.007.074.01.24.03.078.01.17.02.538.068.088.01.037.006.204.025.115.014.208.026.082.01.017.003.397.05.078.01.028.003.105.013.225.028.205.026.433.054.118.014.11.014.172.022.066.008.175.022.08.01.233.029.065.008.513.064.266.033.015.002.23.03.071.008.208.026.04.005.24.03.04.005 1.176.147.018.002.094.012.064.008.158.02.122.015.141.017.058.008.243.03.084.01.462.058.018.003.98.122.137.017.388.049.05.006.192.024.055.007.081.01.31.039.058.007.036.004.133.017.464.058.097.012.153.02.111.013.06.008.177.022.29.036.163.02.097.012.894.112.015.002.914.114.01.001.43.054.04.005.078.01.021.003.206.025.046.006.03.004.069.009.41.05.019.003 1.268.159.041.005.81.101.779.097.06.008.066.008h.004l4.796.6.021.003.564.07.02.003.062.007h.002l1.959.246h.002l1.5.187.008.001 1.245.156H426.916l.043-.001H427.063l.043-.001h.03l.045-.001h.028l.046-.001h.028l.066-.001h.006l.073-.002h.02l.053-.001h.027l.045-.001.03-.001.044-.001h.03l.043-.002h.03l.043-.002h.03l.041-.001.033-.001.043-.002h.028l.06-.002h.013l.072-.003h.018l.055-.003h.026l.047-.002.027-.001.045-.002.03-.001.042-.002.031-.001.04-.002.034-.001.041-.002.03-.001.045-.002.028-.001.055-.003h.016l.072-.004.02-.001.054-.003.023-.001.048-.003.03-.001.042-.002.032-.002.04-.002.033-.002.04-.002.032-.002.039-.003.033-.002.044-.002.027-.002.056-.003.015-.001.073-.005h.01l.062-.005.022-.001.05-.004.027-.001.045-.004.03-.002.041-.003.03-.002.044-.003.028-.002.046-.004.025-.001.05-.004.023-.002.058-.005h.013l.145-.012.02-.002.05-.004.03-.003.043-.003.027-.003.046-.004.026-.002.046-.004.027-.003.045-.004.027-.002.046-.004.026-.003.052-.005.019-.001.144-.014.015-.002.057-.006.018-.001.054-.006.021-.002.051-.005.023-.003.048-.005.025-.002.049-.006.022-.002.051-.005.021-.003.057-.006.014-.002.066-.007h.007l.072-.009h.008l.063-.008.02-.002.052-.006.023-.003.047-.006.026-.003.046-.005.025-.004.047-.005.025-.003.048-.006.023-.003.054-.007.016-.002.145-.019h.002l.069-.009.016-.002.055-.007.021-.003.05-.007.022-.003.05-.007.022-.003.05-.007.02-.003.052-.007.02-.003.056-.007.015-.003.215-.03.012-.003.06-.008.016-.003.054-.008.019-.003.052-.008.02-.003.05-.008.023-.003.051-.008.019-.003.057-.01.012-.001.216-.035.008-.001.062-.01.018-.004.051-.008.023-.004.048-.008.024-.004.047-.008.023-.004.047-.008.024-.004.05-.01.019-.002.058-.01.013-.003.142-.025.007-.002.063-.01.018-.004.05-.01.023-.004.049-.009.021-.004.049-.009.021-.004.052-.01.018-.003.055-.01.015-.003.063-.012.007-.002.143-.028h.002l.067-.013.016-.003.054-.011.019-.004.051-.01.02-.004.052-.01.016-.004.055-.011.016-.004.058-.012.01-.002.066-.014h.005l.143-.03.003-.001.068-.015.007-.001.06-.014.017-.003.054-.012.017-.003.05-.012.022-.004.05-.011.018-.004.054-.012.016-.004.06-.013.009-.002.067-.016h.003l.141-.033.008-.002.06-.014.016-.003.052-.012.022-.006.048-.01.02-.006.049-.011.022-.005.048-.012.02-.005.052-.012.016-.004.21-.051.007-.002.06-.015.016-.004.053-.014.019-.004.048-.012.022-.006.048-.012.02-.005.05-.013.019-.005.054-.014.014-.003.065-.017.002-.001.14-.037h.005l.064-.018.013-.003.055-.015.018-.005.05-.013.019-.005.05-.014.02-.005.048-.013.02-.006.05-.014.017-.004.063-.018h.004l.14-.04.004-.001.062-.018.015-.004.053-.015.02-.005.045-.013.025-.007.046-.014.02-.005.05-.015.017-.005.054-.016.013-.003.057-.017.011-.003.205-.061.012-.004.054-.016.02-.006.05-.015.015-.005.052-.016.017-.005.054-.016.012-.004.056-.017.013-.004.064-.02h.002l.204-.065.017-.005.05-.016.02-.006.047-.015.02-.007.047-.015.02-.006.047-.016.02-.006.049-.016.018-.006.05-.016.017-.006.06-.02.006-.001.068-.023h.002l.064-.022.015-.005.051-.017.021-.007.044-.015.024-.008.043-.014.025-.009.04-.013.026-.01.04-.013.026-.009.04-.014.026-.009.036-.012.031-.01.055-.02.028-.01.045-.015.024-.009.042-.015.027-.01.036-.012.03-.01.038-.014.027-.01.038-.013.027-.01.04-.014.026-.01.038-.013.027-.01.043-.016.022-.008.13-.047.021-.008.042-.016.028-.01.038-.014.027-.01.037-.014.03-.011.033-.013.032-.011.032-.012.034-.013.032-.012.03-.012.036-.014.03-.01.039-.016.033-.013.053-.02.027-.01.039-.015.027-.01.036-.015.03-.011.035-.014.03-.012.033-.013.031-.012.033-.013.031-.013.033-.013.031-.012.033-.013.032-.012.031-.013.054-.022.039-.015.037-.015.025-.01.04-.017.023-.01.038-.015.026-.01.038-.016.024-.01.038-.015.026-.01.037-.016.025-.01.038-.016.024-.01.04-.017.016-.007.144-.06.024-.01.038-.017.023-.01.04-.016.023-.01.04-.017.021-.01.04-.017.023-.01.04-.017.02-.008.043-.019.016-.007.046-.02.009-.004.229-.1h.001l.051-.023.012-.005.049-.022.011-.006.048-.021.013-.006.049-.021.012-.006.048-.022.011-.005c.114-.052.23-.104.343-.157l.003-.001.056-.026.004-.002.053-.025.008-.003.053-.025.003-.002.408-.193.056-.028.003-.001.055-.027.004-.002a42.842 42.842 0 0 0 14.006-10.9 10.667 10.667 0 0 0-16.322-13.738 21.318 21.318 0 0 1-15.198 7.541l-109.839-13.73a10.77 10.77 0 0 0-1.336-.083z" style="fill:#005eee"/><rect x="21.333" y="85.333" width="469.333" height="341.333" rx="42.667" ry="42.667" style="fill:#b8c2ff"/><rect x="426.667" y="106.667" width="64" height="298.667" rx="32" ry="32" style="fill:#7388ff"/><path d="M256 426.667 81.088 409.175a42.667 42.667 0 0 1-38.421-42.454V111.146a42.667 42.667 0 0 1 46.912-42.455L256 85.333z" style="fill:#dfe5ff"/><path d="m256 426.667 174.912-17.492a42.667 42.667 0 0 0 38.421-42.454V111.146a42.667 42.667 0 0 0-46.912-42.455L256 85.333z" style="fill:#ccd4ff"/><path d="M426.667 85.333a21.333 21.333 0 0 0-21.334 21.334v256H320a21.333 21.333 0 0 0 0 42.666h85.333A42.667 42.667 0 0 0 448 362.667v-256a21.333 21.333 0 0 0-21.333-21.334z" style="fill:#b8c2ff"/><path d="M256 64 122.876 42.49a33.4 33.4 0 0 0-27.76 9.525 33.4 33.4 0 0 0-9.783 23.617v270.18a42.667 42.667 0 0 0 37.955 42.405L256 405.333z" style="fill:#eff2ff"/><path d="m256 64 133.124-21.691a33.4 33.4 0 0 1 27.76 9.524 33.4 33.4 0 0 1 9.783 23.617v266.144A42.667 42.667 0 0 1 388.712 384L256 405.333z" style="fill:#dfe5ff"/><rect x="256" y="64" width="42.667" height="341.333" rx="21.333" ry="21.333" style="fill:#ccd4ff"/><rect x="256" y="85.333" width="21.333" height="298.667" rx="10.667" ry="10.667" style="fill:#a4b1ff"/><rect x="298.667" y="64" width="42.667" height="213.333" rx="21.333" ry="21.333" style="fill:#a4b1ff"/><path d="M224.01 277.333a10.442 10.442 0 0 1-2.104-.208L115.24 255.792a10.666 10.666 0 0 1 4.187-20.917l106.667 21.333a10.666 10.666 0 0 1-2.084 21.125zM224.01 213.353a10.442 10.442 0 0 1-2.104-.209L115.24 191.811a10.666 10.666 0 1 1 4.187-20.917l106.667 21.334a10.666 10.666 0 0 1-2.084 21.125zM224.01 149.333a10.442 10.442 0 0 1-2.104-.208l-53.333-10.667a10.667 10.667 0 0 1-8.365-12.552 10.557 10.557 0 0 1 12.552-8.364l53.334 10.666a10.666 10.666 0 0 1-2.084 21.125zM224.01 341.346a10.442 10.442 0 0 1-2.104-.208L115.24 319.805a10.666 10.666 0 0 1 4.187-20.917l106.667 21.333a10.666 10.666 0 0 1-2.084 21.125zM287.99 277.333a10.666 10.666 0 0 1-2.084-21.125l106.667-21.333a10.666 10.666 0 0 1 4.187 20.917l-106.666 21.333a10.442 10.442 0 0 1-2.104.208zM287.99 213.353a10.666 10.666 0 0 1-2.084-21.125l106.667-21.334a10.666 10.666 0 0 1 4.187 20.917l-106.666 21.333a10.442 10.442 0 0 1-2.104.209zM287.99 149.333a10.666 10.666 0 0 1-2.084-21.125l106.667-21.333a10.666 10.666 0 0 1 4.187 20.917l-106.666 21.333a10.442 10.442 0 0 1-2.104.208zM287.99 341.346a10.666 10.666 0 0 1-2.084-21.125l106.667-21.333a10.666 10.666 0 0 1 4.187 20.917l-106.666 21.333a10.442 10.442 0 0 1-2.104.208z" style="fill:#002755"/><rect x="277.333" y="42.667" width="42.667" height="213.333" rx="21.333" ry="21.333" style="fill:gold"/><circle cx="128" cy="106.667" r="21.333" style="fill:#002755"/></g></svg>